<?xml version="1.0" encoding="UTF-8" standalone="no" ?>
<!DOCTYPE svg PUBLIC "-//W3C//DTD SVG 1.1//EN" "http://www.w3.org/Graphics/SVG/1.1/DTD/svg11.dtd">
<svg xmlns="http://www.w3.org/2000/svg" xmlns:xlink="http://www.w3.org/1999/xlink" version="1.1" width="200" height="1080" viewBox="0 0 200 1080" xml:space="preserve">
<desc>Created with Fabric.js 5.2.4</desc>
<defs>
</defs>
<g transform="matrix(1 0 0 1 100 540)" id="c1e1808a-ec70-4146-b6b7-d134589c7a09"  >
<rect style="stroke: none; stroke-width: 1; stroke-dasharray: none; stroke-linecap: butt; stroke-dashoffset: 0; stroke-linejoin: miter; stroke-miterlimit: 4; fill: rgb(255,255,255); fill-rule: nonzero; opacity: 1; visibility: hidden;" vector-effect="non-scaling-stroke"  x="-100" y="-540" rx="0" ry="0" width="200" height="1080" />
</g>
<g transform="matrix(Infinity NaN NaN Infinity 0 0)" id="a6a0d468-2b55-4033-a477-765f75c34769"  >
</g>
<g transform="matrix(1 0 0 0.99 100 540)"  >
<g style="" vector-effect="non-scaling-stroke"   >
		<g transform="matrix(0 3.78 -3.78 0 -0.01 -343.34)" id="path3650-9-5-2-2"  >
<path style="stroke: none; stroke-width: 0.176035; stroke-dasharray: none; stroke-linecap: butt; stroke-dashoffset: 0; stroke-linejoin: miter; stroke-miterlimit: 4; fill: rgb(210,210,210); fill-rule: nonzero; opacity: 1;" vector-effect="non-scaling-stroke"  transform=" translate(772.75, 289.12)" d="M -720.58948 -267.1886 L -792.69884 -267.1886 C -794.99443 -267.1886 -797.28767 -267.47700000000003 -799.56919 -268.05114000000003 L -818.4561900000001 -272.81629000000004 C -822.1326400000002 -273.74233000000004 -824.9131100000001 -280.76437000000004 -824.9131100000001 -289.12256 L -824.9131100000001 -289.12256 C -824.9131100000001 -297.48075 -822.13264 -304.50014000000004 -818.4561900000001 -305.42883 L -798.7013200000001 -310.41093 C -796.9983700000001 -310.83956 -795.2860500000002 -311.05652000000003 -793.5714000000002 -311.05652000000003 L -720.5883000000001 -311.05652000000003 L -720.5883000000001 -267.18860000000006 z" stroke-linecap="round" />
</g>
		<g transform="matrix(0 1 -1 0 -27.55 -425.59)" id="path3652-4-9-9-8"  >
<path style="stroke: none; stroke-width: 1; stroke-dasharray: none; stroke-linecap: butt; stroke-dashoffset: 0; stroke-linejoin: miter; stroke-miterlimit: 4; fill: rgb(86,142,191); fill-rule: nonzero; opacity: 1;" vector-effect="non-scaling-stroke"  transform=" translate(-577.51, -1176.24)" d="M 583.45 1170.04 L 571.5600000000001 1170.04 C 574.61 1174.75 578.6500000000001 1178.95 583.45 1182.45 z" stroke-linecap="round" />
</g>
		<g transform="matrix(0 3.78 -3.78 0 0 -343.34)" id="path66638" clip-path="url(#CLIPPATH_3)"  >
<clipPath id="CLIPPATH_3" >
	<rect transform="matrix(0.26 0 0 0.26 -387.47 -380.44)" id="rect68824" x="-20.4704305" y="-8.91117" rx="0" ry="0" width="40.940861" height="17.82234" />
</clipPath>
<path style="stroke: none; stroke-width: 0.176035; stroke-dasharray: none; stroke-linecap: butt; stroke-dashoffset: 0; stroke-linejoin: miter; stroke-miterlimit: 4; fill: rgb(255,213,39); fill-rule: nonzero; opacity: 1;" vector-effect="non-scaling-stroke"  transform=" translate(767.97, 289.19)" d="M -715.8056 -267.25155 L -787.9149600000001 -267.25155 C -790.21055 -267.25155 -792.5037900000001 -267.53995000000003 -794.7853100000001 -268.11409000000003 L -813.6723100000002 -272.87924000000004 C -817.3487600000002 -273.80528000000004 -820.1292300000001 -280.82732000000004 -820.1292300000001 -289.18551 L -820.1292300000001 -289.18551 C -820.1292300000001 -297.5437 -817.3487600000001 -304.56309000000005 -813.6723100000002 -305.49178 L -793.9174400000002 -310.47388 C -792.2144900000002 -310.90251 -790.5021700000002 -311.11947000000004 -788.7875200000002 -311.11947000000004 L -715.8044200000002 -311.11947000000004 L -715.8044200000002 -267.25155000000007 z" stroke-linecap="round" />
</g>
		<g transform="matrix(0 1 -1 0 31.3 -422.48)" id="path3662-9-6-0-8"  >
<path style="stroke: none; stroke-width: 1; stroke-dasharray: none; stroke-linecap: butt; stroke-dashoffset: 0; stroke-linejoin: miter; stroke-miterlimit: 4; fill: rgb(86,142,191); fill-rule: nonzero; opacity: 1;" vector-effect="non-scaling-stroke"  transform=" translate(-580.62, -1117.39)" d="M 583.45 1115.02 C 581.4300000000001 1116.49 579.51 1118.06 577.7800000000001 1119.77 L 583.45 1119.77 z" stroke-linecap="round" />
</g>
		<g transform="matrix(0 0.43 -1 0 68.16 -306.34)" id="path3666-7-7-7-1"  >
<path style="stroke: none; stroke-width: 1; stroke-dasharray: none; stroke-linecap: butt; stroke-dashoffset: 0; stroke-linejoin: miter; stroke-miterlimit: 4; fill: rgb(146,146,146); fill-rule: nonzero; opacity: 1;" vector-effect="non-scaling-stroke"  transform=" translate(-971.48, -1080.54)" d="M 1328.95 1086.05 L 1328.95 1075.01 L 739.94 1075.01 C 726.11 1075.01 712.2900000000001 1075.73 698.5400000000001 1077.18 L 614.0100000000001 1086.0600000000002 L 1328.9500000000003 1086.0600000000002 z" stroke-linecap="round" />
</g>
		<g transform="matrix(0 0.43 -1 0 -68.17 -306.34)" id="path3668-2-1-0-3"  >
<path style="stroke: none; stroke-width: 1; stroke-dasharray: none; stroke-linecap: butt; stroke-dashoffset: 0; stroke-linejoin: miter; stroke-miterlimit: 4; fill: rgb(146,146,146); fill-rule: nonzero; opacity: 1;" vector-effect="non-scaling-stroke"  transform=" translate(-971.48, -1216.87)" d="M 614.01 1211.35 L 691.54 1219.49 C 709.9499999999999 1221.42 728.4599999999999 1222.39 746.99 1222.39 L 1328.95 1222.39 L 1328.95 1211.3500000000001 z" stroke-linecap="round" />
</g>
		<g transform="matrix(0 3.78 -3.78 0 -0.01 -316.38)" id="path37517-8-8-05"  >
<path style="stroke: none; stroke-width: 0.23995; stroke-dasharray: none; stroke-linecap: butt; stroke-dashoffset: 0; stroke-linejoin: miter; stroke-miterlimit: 4; fill: rgb(24,24,24); fill-rule: nonzero; opacity: 1;" vector-effect="non-scaling-stroke"  transform=" translate(765.62, 289.12)" d="M -722.39293 -298.03373 L -801.51575 -298.03373 C -805.56329 -298.03373 -808.84484 -294.04381 -808.84484 -289.12255999999996 L -808.84484 -289.12255999999996 C -808.84484 -284.20131 -805.5632899999999 -280.21138999999994 -801.51575 -280.21138999999994 L -722.39293 -280.21138999999994 z" stroke-linecap="round" />
</g>
		<g transform="matrix(0 3.78 -3.78 0 48.82 -343.88)" id="path3656-9-7-7-0-0"  >
<path style="stroke: none; stroke-width: 0.191932; stroke-dasharray: none; stroke-linecap: butt; stroke-dashoffset: 0; stroke-linejoin: miter; stroke-miterlimit: 4; fill: rgb(221,58,47); fill-rule: nonzero; opacity: 1;" vector-effect="non-scaling-stroke"  transform=" translate(772.89, 302.04)" d="M -722.39155 -299.1635 L -722.39155 -304.91818 L -799.33433 -304.91818 C -800.32869 -304.91818 -822.43685 -301.46315 -822.43685 -301.46315 C -822.43685 -301.46315 -822.81002 -300.6966 -822.96675 -300.31332 C -823.1234800000001 -299.93005 -823.3948200000001 -299.1635 -823.3948200000001 -299.1635 z" stroke-linecap="round" />
</g>
		<g transform="matrix(0 3.78 -3.78 0 -48.83 -342.41)" id="path3656-9-7-3-8-0-0"  >
<path style="stroke: none; stroke-width: 0.191206; stroke-dasharray: none; stroke-linecap: butt; stroke-dashoffset: 0; stroke-linejoin: miter; stroke-miterlimit: 4; fill: rgb(221,58,47); fill-rule: nonzero; opacity: 1;" vector-effect="non-scaling-stroke"  transform=" translate(772.5, 276.2)" d="M -722.39293 -279.08162 L -722.39293 -273.32694 L -798.75481 -273.32694 C -799.74166 -273.32694 -821.68291 -276.78197 -821.68291 -276.78197 C -821.68291 -276.78197 -822.043 -277.54852 -822.19855 -277.9318 C -822.3540999999999 -278.31507 -822.61622 -279.08162 -822.61622 -279.08162 z" stroke-linecap="round" />
</g>
		<g transform="matrix(0 3.78 -3.78 0 0 -404.76)" id="path3672-5-8-2-79"  >
<path style="stroke: none; stroke-width: 0.264583; stroke-dasharray: none; stroke-linecap: butt; stroke-dashoffset: 0; stroke-linejoin: miter; stroke-miterlimit: 4; fill: rgb(78,71,76); fill-rule: nonzero; opacity: 1;" vector-effect="non-scaling-stroke"  transform=" translate(789, 289.12)" d="M -767.81606 -290.68625 C -767.81606 -295.50694999999996 -771.35883 -299.59740999999997 -776.13191 -300.27738999999997 C -780.8362099999999 -300.94942999999995 -786.3024999999999 -301.59765999999996 -789.0012499999999 -301.43890999999996 C -791.93283 -301.26957999999996 -798.0658699999999 -299.78526999999997 -802.98183 -298.48880999999994 C -807.2310399999999 -297.36697999999996 -810.18908 -293.51728999999995 -810.18908 -289.12255999999996 L -810.18908 -289.12255999999996 C -810.18908 -284.72783 -807.23104 -280.87814 -802.98183 -279.75631 C -798.0658699999999 -278.45984999999996 -791.93548 -276.97553999999997 -789.0012499999999 -276.8062 C -786.3024999999999 -276.6501 -780.8362099999999 -277.29568 -776.13191 -277.96773 C -771.3588299999999 -278.65035 -767.81606 -282.73816 -767.81606 -287.55887 z" stroke-linecap="round" />
</g>
		<g transform="matrix(0 3.78 -3.78 0 -0.01 -438.66)" id="path3676-4-9-0-71"  >
<path style="stroke: none; stroke-width: 0.264583; stroke-dasharray: none; stroke-linecap: butt; stroke-dashoffset: 0; stroke-linejoin: miter; stroke-miterlimit: 4; fill: rgb(254,241,211); fill-rule: nonzero; opacity: 1;" vector-effect="non-scaling-stroke"  transform=" translate(797.97, 289.12)" d="M -790.35327 -289.12256 C -790.35327 -293.30562000000003 -789.34785 -297.11827 -787.69421 -300.00223 C -788.40329 -300.03133 -789.03829 -300.03663 -789.55158 -300.00723 C -792.1392099999999 -299.85641 -797.5499299999999 -298.54672999999997 -801.8891 -297.39844 C -805.63825 -296.40625 -808.24968 -293.00635 -808.24968 -289.12227 C -808.24968 -285.23819000000003 -805.64089 -281.83564 -801.8891 -280.84610000000004 C -797.54993 -279.70046 -792.1392099999999 -278.38812 -789.55158 -278.23731000000004 C -789.03829 -278.20821 -788.40329 -278.21351000000004 -787.69421 -278.24231000000003 C -789.34785 -281.12627000000003 -790.35327 -284.93892000000005 -790.35327 -289.12198 z" stroke-linecap="round" />
</g>
		<g transform="matrix(0 3.78 -3.78 0 -0.01 -442.85)" id="path3678-9-7-9-4"  >
<path style="stroke: none; stroke-width: 0.264583; stroke-dasharray: none; stroke-linecap: butt; stroke-dashoffset: 0; stroke-linejoin: miter; stroke-miterlimit: 4; fill: rgb(134,181,230); fill-rule: nonzero; opacity: 1;" vector-effect="non-scaling-stroke"  transform=" translate(799.08, 289.12)" d="M -792.55989 -289.12256 C -792.55989 -292.93785 -791.86139 -296.48591000000005 -790.66812 -299.43073000000004 C -793.4885800000001 -299.01268000000005 -797.6981000000001 -298.00462000000005 -801.20383 -297.10239 C -804.9132900000001 -296.14725000000004 -807.49298 -292.86641000000003 -807.49298 -289.12256 C -807.49298 -285.37870000000004 -804.91329 -282.09787 -801.20383 -281.14273000000003 C -797.7007500000001 -280.24050000000005 -793.4912300000001 -279.23243 -790.66812 -278.81439 C -791.86404 -281.7592 -792.55989 -285.30462 -792.55989 -289.12256 z" stroke-linecap="round" />
</g>
		<g transform="matrix(0 3.78 -3.78 0 -0.01 -460.29)" id="path3680-7-2-4-07"  >
<path style="stroke: none; stroke-width: 0.264583; stroke-dasharray: none; stroke-linecap: butt; stroke-dashoffset: 0; stroke-linejoin: miter; stroke-miterlimit: 4; fill: rgb(202,230,252); fill-rule: nonzero; opacity: 1;" vector-effect="non-scaling-stroke"  transform=" translate(803.69, 289.12)" d="M -804.56933 -289.12256 C -804.56933 -292.69443 -802.7146 -295.88531 -799.89679 -297.43577000000005 C -800.33864 -297.32464000000004 -800.7778500000001 -297.2135200000001 -801.20383 -297.10239000000007 C -804.9132900000001 -296.1472500000001 -807.49298 -292.8664100000001 -807.49298 -289.1225600000001 C -807.49298 -285.3787000000001 -804.91329 -282.09787000000006 -801.20383 -281.1427300000001 C -800.7778500000001 -281.0342500000001 -800.3412900000001 -280.9204800000001 -799.89679 -280.8093500000001 C -802.71725 -282.3598100000001 -804.56933 -285.5506800000001 -804.56933 -289.12256000000014 z" stroke-linecap="round" />
</g>
		<g transform="matrix(0 2.45 -3.78 0 -68.68 -334.43)" id="path3710-9-1-6-7"  >
<path style="stroke: none; stroke-width: 0.217658; stroke-dasharray: none; stroke-linecap: butt; stroke-dashoffset: 0; stroke-linejoin: miter; stroke-miterlimit: 4; fill: rgb(145,138,143); fill-rule: nonzero; opacity: 0.21;" vector-effect="non-scaling-stroke"  transform=" translate(743.38, 272.26)" d="M -778.84521 -271.17691 C -782.59461 -271.17691 -786.3386399999999 -271.43091000000004 -790.06476 -271.93361000000004 L -820.22649 -276.02143000000007 C -818.99459 -275.02659000000006 -817.61767 -274.3624900000001 -816.14405 -274.1190700000001 L -787.26793 -269.35922000000005 C -783.77995 -268.7850700000001 -780.27406 -268.49668 -776.76459 -268.49668 L -666.52433 -268.49668 L -666.52433 -271.17955 L -778.84521 -271.17955 z" stroke-linecap="round" />
</g>
		<g transform="matrix(0 2.45 -3.78 0 68.66 -336.19)" id="path3712-1-0-8-3"  >
<path style="stroke: none; stroke-width: 0.218667; stroke-dasharray: none; stroke-linecap: butt; stroke-dashoffset: 0; stroke-linejoin: miter; stroke-miterlimit: 4; fill: rgb(145,138,143); fill-rule: nonzero; opacity: 0.21;" vector-effect="non-scaling-stroke"  transform=" translate(744.09, 308.6)" d="M -789.7861 -309.11286 C -786.97952 -309.49122 -784.15668 -309.67907 -781.33203 -309.67907 L -666.52795 -309.67907 L -666.52795 -312.36195000000004 L -779.1399 -312.36195000000004 C -781.78383 -312.36195000000004 -784.4259500000001 -312.14763000000005 -787.05542 -311.71636 L -817.5374400000001 -306.73426 C -819.02296 -306.49084 -820.4126900000001 -305.82674000000003 -821.65785 -304.83191 z" stroke-linecap="round" />
</g>
		<g transform="matrix(0 3.78 -3.78 0 0.01 -225)" id="rect3692-6-0-2-4"  >
<rect style="stroke: none; stroke-width: 0.264583; stroke-dasharray: none; stroke-linecap: butt; stroke-dashoffset: 0; stroke-linejoin: miter; stroke-miterlimit: 4; fill: rgb(145,138,143); fill-rule: nonzero; opacity: 1;" vector-effect="non-scaling-stroke"  x="-6.683375" y="-8.91249" rx="0" ry="0" width="13.36675" height="17.82498" />
</g>
		<g transform="matrix(0 3.78 -3.78 0 -12.16 -225)" id="rect3696-6-8-6-2"  >
<rect style="stroke: none; stroke-width: 0.475021; stroke-dasharray: none; stroke-linecap: butt; stroke-dashoffset: 0; stroke-linejoin: miter; stroke-miterlimit: 4; fill: rgb(78,71,76); fill-rule: nonzero; opacity: 1;" vector-effect="non-scaling-stroke"  x="-6.683375" y="-0.396570265" rx="0" ry="0" width="13.36675" height="0.79314053" />
</g>
		<g transform="matrix(0 3.78 -3.78 0 -25.08 -225)" id="rect3700-2-9-7-2"  >
<rect style="stroke: none; stroke-width: 0.475021; stroke-dasharray: none; stroke-linecap: butt; stroke-dashoffset: 0; stroke-linejoin: miter; stroke-miterlimit: 4; fill: rgb(78,71,76); fill-rule: nonzero; opacity: 1;" vector-effect="non-scaling-stroke"  x="-6.683375" y="-0.396570265" rx="0" ry="0" width="13.36675" height="0.79314053" />
</g>
		<g transform="matrix(0 3.78 -3.78 0 12.35 -224.99)" id="path3702-8-4-4-8"  >
<path style="stroke: none; stroke-width: 0.264583; stroke-dasharray: none; stroke-linecap: butt; stroke-dashoffset: 0; stroke-linejoin: miter; stroke-miterlimit: 4; fill: rgb(254,241,211); fill-rule: nonzero; opacity: 1;" vector-effect="non-scaling-stroke"  transform=" translate(-65.11, -96.16)" d="M 68.893357 96.157184 C 68.893357 94.066974 67.200036 92.373634 65.109838 92.373634 C 63.019639999999995 92.373634 61.326322 94.066974 61.326322 96.157184 C 61.326322 98.247384 63.019639999999995 99.940723 65.109838 99.940723 C 67.197386 99.940723 68.893357 98.24738400000001 68.893357 96.157184 z" stroke-linecap="round" />
</g>
		<g transform="matrix(0 3.78 -3.78 0 12.35 -225)" id="path3704-8-1-4-3"  >
<path style="stroke: none; stroke-width: 0.231787; stroke-dasharray: none; stroke-linecap: butt; stroke-dashoffset: 0; stroke-linejoin: miter; stroke-miterlimit: 4; fill: rgb(78,71,76); fill-rule: nonzero; opacity: 1;" vector-effect="non-scaling-stroke"  transform=" translate(-65.11, -96.16)" d="M 68.134319 96.157183 C 68.134319 94.48599200000001 66.778372 93.130038 65.107189 93.130038 C 63.43601700000001 93.130038 62.080070000000006 94.485992 62.080070000000006 96.157183 C 62.080070000000006 97.828366 63.43601700000001 99.184319 65.107189 99.184319 C 66.778372 99.184319 68.134319 97.828366 68.134319 96.157183 z" stroke-linecap="round" />
</g>
		<g transform="matrix(0 -3.78 -3.78 0 -0.07 343.34)" id="path3650-9-5-2-2-4"  >
<path style="stroke: none; stroke-width: 0.176035; stroke-dasharray: none; stroke-linecap: butt; stroke-dashoffset: 0; stroke-linejoin: miter; stroke-miterlimit: 4; fill: rgb(210,210,210); fill-rule: nonzero; opacity: 1;" vector-effect="non-scaling-stroke"  transform=" translate(772.75, 289.12)" d="M -720.58948 -267.1886 L -792.69884 -267.1886 C -794.99443 -267.1886 -797.28767 -267.47700000000003 -799.56919 -268.05114000000003 L -818.4561900000001 -272.81629000000004 C -822.1326400000002 -273.74233000000004 -824.9131100000001 -280.76437000000004 -824.9131100000001 -289.12256 L -824.9131100000001 -289.12256 C -824.9131100000001 -297.48075 -822.13264 -304.50014000000004 -818.4561900000001 -305.42883 L -798.7013200000001 -310.41093 C -796.9983700000001 -310.83956 -795.2860500000002 -311.05652000000003 -793.5714000000002 -311.05652000000003 L -720.5883000000001 -311.05652000000003 L -720.5883000000001 -267.18860000000006 z" stroke-linecap="round" />
</g>
		<g transform="matrix(0 -1 -1 0 -27.61 425.59)" id="path3652-4-9-9-8-7"  >
<path style="stroke: none; stroke-width: 1; stroke-dasharray: none; stroke-linecap: butt; stroke-dashoffset: 0; stroke-linejoin: miter; stroke-miterlimit: 4; fill: rgb(86,142,191); fill-rule: nonzero; opacity: 1;" vector-effect="non-scaling-stroke"  transform=" translate(-577.51, -1176.24)" d="M 583.45 1170.04 L 571.5600000000001 1170.04 C 574.61 1174.75 578.6500000000001 1178.95 583.45 1182.45 z" stroke-linecap="round" />
</g>
		<g transform="matrix(0 -3.78 -3.78 0 -0.07 343.34)" id="path66638-3" clip-path="url(#CLIPPATH_4)"  >
<clipPath id="CLIPPATH_4" >
	<rect transform="matrix(0.26 0 0 0.26 -387.47 -380.44)" id="rect68824-0" x="-20.4704305" y="-8.91117" rx="0" ry="0" width="40.940861" height="17.82234" />
</clipPath>
<path style="stroke: none; stroke-width: 0.176035; stroke-dasharray: none; stroke-linecap: butt; stroke-dashoffset: 0; stroke-linejoin: miter; stroke-miterlimit: 4; fill: rgb(255,213,39); fill-rule: nonzero; opacity: 1;" vector-effect="non-scaling-stroke"  transform=" translate(767.97, 289.19)" d="M -715.8056 -267.25155 L -787.9149600000001 -267.25155 C -790.21055 -267.25155 -792.5037900000001 -267.53995000000003 -794.7853100000001 -268.11409000000003 L -813.6723100000002 -272.87924000000004 C -817.3487600000002 -273.80528000000004 -820.1292300000001 -280.82732000000004 -820.1292300000001 -289.18551 L -820.1292300000001 -289.18551 C -820.1292300000001 -297.5437 -817.3487600000001 -304.56309000000005 -813.6723100000002 -305.49178 L -793.9174400000002 -310.47388 C -792.2144900000002 -310.90251 -790.5021700000002 -311.11947000000004 -788.7875200000002 -311.11947000000004 L -715.8044200000002 -311.11947000000004 L -715.8044200000002 -267.25155000000007 z" stroke-linecap="round" />
</g>
		<g transform="matrix(0 -1 -1 0 31.24 422.48)" id="path3662-9-6-0-8-4"  >
<path style="stroke: none; stroke-width: 1; stroke-dasharray: none; stroke-linecap: butt; stroke-dashoffset: 0; stroke-linejoin: miter; stroke-miterlimit: 4; fill: rgb(86,142,191); fill-rule: nonzero; opacity: 1;" vector-effect="non-scaling-stroke"  transform=" translate(-580.62, -1117.39)" d="M 583.45 1115.02 C 581.4300000000001 1116.49 579.51 1118.06 577.7800000000001 1119.77 L 583.45 1119.77 z" stroke-linecap="round" />
</g>
		<g transform="matrix(0 -0.43 -1 0 68.1 306.34)" id="path3666-7-7-7-1-3"  >
<path style="stroke: none; stroke-width: 1; stroke-dasharray: none; stroke-linecap: butt; stroke-dashoffset: 0; stroke-linejoin: miter; stroke-miterlimit: 4; fill: rgb(146,146,146); fill-rule: nonzero; opacity: 1;" vector-effect="non-scaling-stroke"  transform=" translate(-971.48, -1080.54)" d="M 1328.95 1086.05 L 1328.95 1075.01 L 739.94 1075.01 C 726.11 1075.01 712.2900000000001 1075.73 698.5400000000001 1077.18 L 614.0100000000001 1086.0600000000002 L 1328.9500000000003 1086.0600000000002 z" stroke-linecap="round" />
</g>
		<g transform="matrix(0 -0.43 -1 0 -68.24 306.34)" id="path3668-2-1-0-3-7"  >
<path style="stroke: none; stroke-width: 1; stroke-dasharray: none; stroke-linecap: butt; stroke-dashoffset: 0; stroke-linejoin: miter; stroke-miterlimit: 4; fill: rgb(146,146,146); fill-rule: nonzero; opacity: 1;" vector-effect="non-scaling-stroke"  transform=" translate(-971.48, -1216.87)" d="M 614.01 1211.35 L 691.54 1219.49 C 709.9499999999999 1221.42 728.4599999999999 1222.39 746.99 1222.39 L 1328.95 1222.39 L 1328.95 1211.3500000000001 z" stroke-linecap="round" />
</g>
		<g transform="matrix(0 -3.78 -3.78 0 -0.07 316.38)" id="path37517-8-8-05-2"  >
<path style="stroke: none; stroke-width: 0.23995; stroke-dasharray: none; stroke-linecap: butt; stroke-dashoffset: 0; stroke-linejoin: miter; stroke-miterlimit: 4; fill: rgb(24,24,24); fill-rule: nonzero; opacity: 1;" vector-effect="non-scaling-stroke"  transform=" translate(765.62, 289.12)" d="M -722.39293 -298.03373 L -801.51575 -298.03373 C -805.56329 -298.03373 -808.84484 -294.04381 -808.84484 -289.12255999999996 L -808.84484 -289.12255999999996 C -808.84484 -284.20131 -805.5632899999999 -280.21138999999994 -801.51575 -280.21138999999994 L -722.39293 -280.21138999999994 z" stroke-linecap="round" />
</g>
		<g transform="matrix(0 -3.78 -3.78 0 48.76 343.88)" id="path3656-9-7-7-0-0-6"  >
<path style="stroke: none; stroke-width: 0.191932; stroke-dasharray: none; stroke-linecap: butt; stroke-dashoffset: 0; stroke-linejoin: miter; stroke-miterlimit: 4; fill: rgb(221,58,47); fill-rule: nonzero; opacity: 1;" vector-effect="non-scaling-stroke"  transform=" translate(772.89, 302.04)" d="M -722.39155 -299.1635 L -722.39155 -304.91818 L -799.33433 -304.91818 C -800.32869 -304.91818 -822.43685 -301.46315 -822.43685 -301.46315 C -822.43685 -301.46315 -822.81002 -300.6966 -822.96675 -300.31332 C -823.1234800000001 -299.93005 -823.3948200000001 -299.1635 -823.3948200000001 -299.1635 z" stroke-linecap="round" />
</g>
		<g transform="matrix(0 -3.78 -3.78 0 -48.89 342.41)" id="path3656-9-7-3-8-0-0-88"  >
<path style="stroke: none; stroke-width: 0.191206; stroke-dasharray: none; stroke-linecap: butt; stroke-dashoffset: 0; stroke-linejoin: miter; stroke-miterlimit: 4; fill: rgb(221,58,47); fill-rule: nonzero; opacity: 1;" vector-effect="non-scaling-stroke"  transform=" translate(772.5, 276.2)" d="M -722.39293 -279.08162 L -722.39293 -273.32694 L -798.75481 -273.32694 C -799.74166 -273.32694 -821.68291 -276.78197 -821.68291 -276.78197 C -821.68291 -276.78197 -822.043 -277.54852 -822.19855 -277.9318 C -822.3540999999999 -278.31507 -822.61622 -279.08162 -822.61622 -279.08162 z" stroke-linecap="round" />
</g>
		<g transform="matrix(0 -3.78 -3.78 0 -0.07 404.76)" id="path3672-5-8-2-79-3"  >
<path style="stroke: none; stroke-width: 0.264583; stroke-dasharray: none; stroke-linecap: butt; stroke-dashoffset: 0; stroke-linejoin: miter; stroke-miterlimit: 4; fill: rgb(78,71,76); fill-rule: nonzero; opacity: 1;" vector-effect="non-scaling-stroke"  transform=" translate(789, 289.12)" d="M -767.81606 -290.68625 C -767.81606 -295.50694999999996 -771.35883 -299.59740999999997 -776.13191 -300.27738999999997 C -780.8362099999999 -300.94942999999995 -786.3024999999999 -301.59765999999996 -789.0012499999999 -301.43890999999996 C -791.93283 -301.26957999999996 -798.0658699999999 -299.78526999999997 -802.98183 -298.48880999999994 C -807.2310399999999 -297.36697999999996 -810.18908 -293.51728999999995 -810.18908 -289.12255999999996 L -810.18908 -289.12255999999996 C -810.18908 -284.72783 -807.23104 -280.87814 -802.98183 -279.75631 C -798.0658699999999 -278.45984999999996 -791.93548 -276.97553999999997 -789.0012499999999 -276.8062 C -786.3024999999999 -276.6501 -780.8362099999999 -277.29568 -776.13191 -277.96773 C -771.3588299999999 -278.65035 -767.81606 -282.73816 -767.81606 -287.55887 z" stroke-linecap="round" />
</g>
		<g transform="matrix(0 -3.78 -3.78 0 -0.07 438.66)" id="path3676-4-9-0-71-69"  >
<path style="stroke: none; stroke-width: 0.264583; stroke-dasharray: none; stroke-linecap: butt; stroke-dashoffset: 0; stroke-linejoin: miter; stroke-miterlimit: 4; fill: rgb(254,241,211); fill-rule: nonzero; opacity: 1;" vector-effect="non-scaling-stroke"  transform=" translate(797.97, 289.12)" d="M -790.35327 -289.12256 C -790.35327 -293.30562000000003 -789.34785 -297.11827 -787.69421 -300.00223 C -788.40329 -300.03133 -789.03829 -300.03663 -789.55158 -300.00723 C -792.1392099999999 -299.85641 -797.5499299999999 -298.54672999999997 -801.8891 -297.39844 C -805.63825 -296.40625 -808.24968 -293.00635 -808.24968 -289.12227 C -808.24968 -285.23819000000003 -805.64089 -281.83564 -801.8891 -280.84610000000004 C -797.54993 -279.70046 -792.1392099999999 -278.38812 -789.55158 -278.23731000000004 C -789.03829 -278.20821 -788.40329 -278.21351000000004 -787.69421 -278.24231000000003 C -789.34785 -281.12627000000003 -790.35327 -284.93892000000005 -790.35327 -289.12198 z" stroke-linecap="round" />
</g>
		<g transform="matrix(0 -3.78 -3.78 0 -0.07 442.85)" id="path3678-9-7-9-4-9"  >
<path style="stroke: none; stroke-width: 0.264583; stroke-dasharray: none; stroke-linecap: butt; stroke-dashoffset: 0; stroke-linejoin: miter; stroke-miterlimit: 4; fill: rgb(134,181,230); fill-rule: nonzero; opacity: 1;" vector-effect="non-scaling-stroke"  transform=" translate(799.08, 289.12)" d="M -792.55989 -289.12256 C -792.55989 -292.93785 -791.86139 -296.48591000000005 -790.66812 -299.43073000000004 C -793.4885800000001 -299.01268000000005 -797.6981000000001 -298.00462000000005 -801.20383 -297.10239 C -804.9132900000001 -296.14725000000004 -807.49298 -292.86641000000003 -807.49298 -289.12256 C -807.49298 -285.37870000000004 -804.91329 -282.09787 -801.20383 -281.14273000000003 C -797.7007500000001 -280.24050000000005 -793.4912300000001 -279.23243 -790.66812 -278.81439 C -791.86404 -281.7592 -792.55989 -285.30462 -792.55989 -289.12256 z" stroke-linecap="round" />
</g>
		<g transform="matrix(0 -3.78 -3.78 0 -0.07 460.29)" id="path3680-7-2-4-07-0"  >
<path style="stroke: none; stroke-width: 0.264583; stroke-dasharray: none; stroke-linecap: butt; stroke-dashoffset: 0; stroke-linejoin: miter; stroke-miterlimit: 4; fill: rgb(202,230,252); fill-rule: nonzero; opacity: 1;" vector-effect="non-scaling-stroke"  transform=" translate(803.69, 289.12)" d="M -804.56933 -289.12256 C -804.56933 -292.69443 -802.7146 -295.88531 -799.89679 -297.43577000000005 C -800.33864 -297.32464000000004 -800.7778500000001 -297.2135200000001 -801.20383 -297.10239000000007 C -804.9132900000001 -296.1472500000001 -807.49298 -292.8664100000001 -807.49298 -289.1225600000001 C -807.49298 -285.3787000000001 -804.91329 -282.09787000000006 -801.20383 -281.1427300000001 C -800.7778500000001 -281.0342500000001 -800.3412900000001 -280.9204800000001 -799.89679 -280.8093500000001 C -802.71725 -282.3598100000001 -804.56933 -285.5506800000001 -804.56933 -289.12256000000014 z" stroke-linecap="round" />
</g>
		<g transform="matrix(0 -2.45 -3.78 0 -68.74 334.43)" id="path3710-9-1-6-7-7"  >
<path style="stroke: none; stroke-width: 0.217658; stroke-dasharray: none; stroke-linecap: butt; stroke-dashoffset: 0; stroke-linejoin: miter; stroke-miterlimit: 4; fill: rgb(145,138,143); fill-rule: nonzero; opacity: 0.21;" vector-effect="non-scaling-stroke"  transform=" translate(743.38, 272.26)" d="M -778.84521 -271.17691 C -782.59461 -271.17691 -786.3386399999999 -271.43091000000004 -790.06476 -271.93361000000004 L -820.22649 -276.02143000000007 C -818.99459 -275.02659000000006 -817.61767 -274.3624900000001 -816.14405 -274.1190700000001 L -787.26793 -269.35922000000005 C -783.77995 -268.7850700000001 -780.27406 -268.49668 -776.76459 -268.49668 L -666.52433 -268.49668 L -666.52433 -271.17955 L -778.84521 -271.17955 z" stroke-linecap="round" />
</g>
		<g transform="matrix(0 -2.45 -3.78 0 68.6 336.19)" id="path3712-1-0-8-3-8"  >
<path style="stroke: none; stroke-width: 0.218667; stroke-dasharray: none; stroke-linecap: butt; stroke-dashoffset: 0; stroke-linejoin: miter; stroke-miterlimit: 4; fill: rgb(145,138,143); fill-rule: nonzero; opacity: 0.21;" vector-effect="non-scaling-stroke"  transform=" translate(744.09, 308.6)" d="M -789.7861 -309.11286 C -786.97952 -309.49122 -784.15668 -309.67907 -781.33203 -309.67907 L -666.52795 -309.67907 L -666.52795 -312.36195000000004 L -779.1399 -312.36195000000004 C -781.78383 -312.36195000000004 -784.4259500000001 -312.14763000000005 -787.05542 -311.71636 L -817.5374400000001 -306.73426 C -819.02296 -306.49084 -820.4126900000001 -305.82674000000003 -821.65785 -304.83191 z" stroke-linecap="round" />
</g>
		<g transform="matrix(0 -3.78 3.78 0 -0.05 225)" id="rect3692-6-0-2-4-9"  >
<rect style="stroke: none; stroke-width: 0.264583; stroke-dasharray: none; stroke-linecap: butt; stroke-dashoffset: 0; stroke-linejoin: miter; stroke-miterlimit: 4; fill: rgb(145,138,143); fill-rule: nonzero; opacity: 1;" vector-effect="non-scaling-stroke"  x="-6.683375" y="-8.91249" rx="0" ry="0" width="13.36675" height="17.82498" />
</g>
		<g transform="matrix(0 -3.78 3.78 0 12.13 225)" id="rect3696-6-8-6-2-1"  >
<rect style="stroke: none; stroke-width: 0.475021; stroke-dasharray: none; stroke-linecap: butt; stroke-dashoffset: 0; stroke-linejoin: miter; stroke-miterlimit: 4; fill: rgb(78,71,76); fill-rule: nonzero; opacity: 1;" vector-effect="non-scaling-stroke"  x="-6.683375" y="-0.396570265" rx="0" ry="0" width="13.36675" height="0.79314053" />
</g>
		<g transform="matrix(0 -3.78 3.78 0 25.05 225)" id="rect3700-2-9-7-2-0"  >
<rect style="stroke: none; stroke-width: 0.475021; stroke-dasharray: none; stroke-linecap: butt; stroke-dashoffset: 0; stroke-linejoin: miter; stroke-miterlimit: 4; fill: rgb(78,71,76); fill-rule: nonzero; opacity: 1;" vector-effect="non-scaling-stroke"  x="-6.683375" y="-0.396570265" rx="0" ry="0" width="13.36675" height="0.79314053" />
</g>
		<g transform="matrix(0 -3.78 3.78 0 -12.38 224.99)" id="path3702-8-4-4-8-2"  >
<path style="stroke: none; stroke-width: 0.264583; stroke-dasharray: none; stroke-linecap: butt; stroke-dashoffset: 0; stroke-linejoin: miter; stroke-miterlimit: 4; fill: rgb(254,241,211); fill-rule: nonzero; opacity: 1;" vector-effect="non-scaling-stroke"  transform=" translate(-65.11, -96.16)" d="M 68.893357 96.157184 C 68.893357 94.066974 67.200036 92.373634 65.109838 92.373634 C 63.019639999999995 92.373634 61.326322 94.066974 61.326322 96.157184 C 61.326322 98.247384 63.019639999999995 99.940723 65.109838 99.940723 C 67.197386 99.940723 68.893357 98.24738400000001 68.893357 96.157184 z" stroke-linecap="round" />
</g>
		<g transform="matrix(0 -3.78 3.78 0 -12.38 225)" id="path3704-8-1-4-3-9"  >
<path style="stroke: none; stroke-width: 0.231787; stroke-dasharray: none; stroke-linecap: butt; stroke-dashoffset: 0; stroke-linejoin: miter; stroke-miterlimit: 4; fill: rgb(78,71,76); fill-rule: nonzero; opacity: 1;" vector-effect="non-scaling-stroke"  transform=" translate(-65.11, -96.16)" d="M 68.134319 96.157183 C 68.134319 94.48599200000001 66.778372 93.130038 65.107189 93.130038 C 63.43601700000001 93.130038 62.080070000000006 94.485992 62.080070000000006 96.157183 C 62.080070000000006 97.828366 63.43601700000001 99.184319 65.107189 99.184319 C 66.778372 99.184319 68.134319 97.828366 68.134319 96.157183 z" stroke-linecap="round" />
</g>
		<g transform="matrix(0 3.78 -3.78 0 -0.01 0)" id="path3650-9-5-2-8"  >
<path style="stroke: none; stroke-width: 0.175523; stroke-dasharray: none; stroke-linecap: butt; stroke-dashoffset: 0; stroke-linejoin: miter; stroke-miterlimit: 4; fill: rgb(210,210,210); fill-rule: nonzero; opacity: 1;" vector-effect="non-scaling-stroke"  transform=" translate(-134.76, -99.42)" d="M 171.03376 121.35346 L 98.476499 121.35346 L 98.476499 77.485539 L 171.03492 77.485539 L 171.03492 121.35346000000001 z" stroke-linecap="round" />
</g>
		<g transform="matrix(0 0.37 -1 0 68.16 0.04)" id="path3666-7-7-7-3"  >
<path style="stroke: none; stroke-width: 1; stroke-dasharray: none; stroke-linecap: butt; stroke-dashoffset: 0; stroke-linejoin: miter; stroke-miterlimit: 4; fill: rgb(146,146,146); fill-rule: nonzero; opacity: 1;" vector-effect="non-scaling-stroke"  transform=" translate(-980.37, -1080.53)" d="M 1328.95 1086.05 L 1328.95 1075.01 L 631.79376 1075.01 L 631.79376 1086.06 L 1328.95 1086.06 Z" stroke-linecap="round" />
</g>
		<g transform="matrix(0 0.37 -1 0 -68.18 0.04)" id="path3666-7-7-7-3-1"  >
<path style="stroke: none; stroke-width: 1; stroke-dasharray: none; stroke-linecap: butt; stroke-dashoffset: 0; stroke-linejoin: miter; stroke-miterlimit: 4; fill: rgb(146,146,146); fill-rule: nonzero; opacity: 1;" vector-effect="non-scaling-stroke"  transform=" translate(-980.37, -1216.88)" d="M 1328.95 1222.39 L 1328.95 1211.3500000000001 L 631.79378 1211.3500000000001 L 631.79378 1222.4 L 1328.95 1222.4 Z" stroke-linecap="round" />
</g>
		<g transform="matrix(0 3.78 -3.78 0 -0.01 0.04)" id="path37517-8-8-2"  >
<path style="stroke: none; stroke-width: 0.22429; stroke-dasharray: none; stroke-linecap: butt; stroke-dashoffset: 0; stroke-linejoin: miter; stroke-miterlimit: 4; fill: rgb(24,24,24); fill-rule: nonzero; opacity: 1;" vector-effect="non-scaling-stroke"  transform=" translate(-134.77, -99.42)" d="M 169.33204 90.508329 L 100.19963000000001 90.508329 L 100.19963000000001 108.33067 L 169.33204 108.33067 z" stroke-linecap="round" />
</g>
		<g transform="matrix(0 3.78 -3.78 0 48.82 0.04)" id="path3656-9-7-7-0-4"  >
<path style="stroke: none; stroke-width: 0.181826; stroke-dasharray: none; stroke-linecap: butt; stroke-dashoffset: 0; stroke-linejoin: miter; stroke-miterlimit: 4; fill: rgb(221,58,47); fill-rule: nonzero; opacity: 1;" vector-effect="non-scaling-stroke"  transform=" translate(-134.77, -86.5)" d="M 169.33324 89.378559 L 169.33324 83.623879 L 100.20003999999999 83.623879 L 100.20003999999999 89.37498000000001 z" stroke-linecap="round" />
</g>
		<g transform="matrix(0 3.78 -3.78 0 -49.48 0.04)" id="path3656-9-7-7-0-4-5"  >
<path style="stroke: none; stroke-width: 0.181826; stroke-dasharray: none; stroke-linecap: butt; stroke-dashoffset: 0; stroke-linejoin: miter; stroke-miterlimit: 4; fill: rgb(221,58,47); fill-rule: nonzero; opacity: 1;" vector-effect="non-scaling-stroke"  transform=" translate(-134.77, -112.51)" d="M 169.33243 115.38713 L 169.33243 109.63245 L 100.19923999999999 109.63245 L 100.19923999999999 115.38355 z" stroke-linecap="round" />
</g>
		<g transform="matrix(0 3.78 -3.78 0 -0.01 55)" id="path3706-4-9-8-4"  >
<path style="stroke: none; stroke-width: 0.264583; stroke-dasharray: none; stroke-linecap: butt; stroke-dashoffset: 0; stroke-linejoin: miter; stroke-miterlimit: 4; fill: rgb(115,105,112); fill-rule: nonzero; opacity: 1;" vector-effect="non-scaling-stroke"  transform=" translate(-149.81, -99.42)" d="M 155.1207 97.445709 L 144.50826 97.445709 C 143.41818 97.445709 142.53447 98.32941899999999 142.53447 99.41949899999999 L 142.53447 99.41949899999999 C 142.53447 100.50957999999999 143.41818 101.39329 144.50826 101.39329 L 155.1207 101.39329 C 156.21078 101.39329 157.09449 100.50958 157.09449 99.41949899999999 L 157.09449 99.41949899999999 C 157.09449 98.32941899999999 156.21078 97.445709 155.1207 97.445709 z" stroke-linecap="round" />
</g>
		<g transform="matrix(0 3.78 -3.78 0 -0.01 -55)" id="path3706-4-9-8-4-0"  >
<path style="stroke: none; stroke-width: 0.264583; stroke-dasharray: none; stroke-linecap: butt; stroke-dashoffset: 0; stroke-linejoin: miter; stroke-miterlimit: 4; fill: rgb(115,105,112); fill-rule: nonzero; opacity: 1;" vector-effect="non-scaling-stroke"  transform=" translate(-120.71, -99.42)" d="M 126.01635 97.445701 L 115.40391 97.445701 C 114.31383 97.445701 113.43012 98.329411 113.43012 99.419491 L 113.43012 99.419491 C 113.43012 100.50958 114.31383 101.39329 115.40391 101.39329 L 126.01634999999999 101.39329 C 127.10642999999999 101.39329 127.99013999999998 100.50958 127.99013999999998 99.419491 L 127.99013999999998 99.419491 C 127.99013999999998 98.329411 127.10642999999999 97.445701 126.01634999999999 97.445701 z" stroke-linecap="round" />
</g>
		<g transform="matrix(0 0.44 -1 0 -77.82 0)" id="path3710-9-1-6-6"  >
<path style="stroke: none; stroke-width: 1; stroke-dasharray: none; stroke-linecap: butt; stroke-dashoffset: 0; stroke-linejoin: miter; stroke-miterlimit: 4; fill: rgb(145,138,143); fill-rule: nonzero; opacity: 0.21;" vector-effect="non-scaling-stroke"  transform=" translate(-1041.78, -1226.52)" d="M 730.21135 1231.59 L 1353.34 1231.59 L 1353.34 1221.4499999999998 L 730.21135 1221.4499999999998 Z" stroke-linecap="round" />
</g>
		<g transform="matrix(0 0.44 -1 0 77.82 0)" id="path3712-1-0-8-7"  >
<path style="stroke: none; stroke-width: 1; stroke-dasharray: none; stroke-linecap: butt; stroke-dashoffset: 0; stroke-linejoin: miter; stroke-miterlimit: 4; fill: rgb(145,138,143); fill-rule: nonzero; opacity: 0.21;" vector-effect="non-scaling-stroke"  transform=" translate(-1041.77, -1070.87)" d="M 730.21135 1075.94 L 1353.33 1075.94 L 1353.33 1065.8 L 730.21135 1065.8 Z" stroke-linecap="round" />
</g>
		<g transform="matrix(0 3.78 -3.78 0 -0.04 -141.65)" id="rect69082"  >
<rect style="stroke: none; stroke-width: 0.7; stroke-dasharray: none; stroke-linecap: butt; stroke-dashoffset: 0; stroke-linejoin: miter; stroke-miterlimit: 4; fill: rgb(141,141,141); fill-rule: nonzero; opacity: 1;" vector-effect="non-scaling-stroke"  x="-1.20019245" y="-1.0732795" rx="0" ry="0" width="2.4003849" height="2.146559" />
</g>
		<g transform="matrix(0 3.78 -3.78 0 -0.04 141.65)" id="rect69082-0"  >
<rect style="stroke: none; stroke-width: 0.7; stroke-dasharray: none; stroke-linecap: butt; stroke-dashoffset: 0; stroke-linejoin: miter; stroke-miterlimit: 4; fill: rgb(141,141,141); fill-rule: nonzero; opacity: 1;" vector-effect="non-scaling-stroke"  x="-1.20019245" y="-1.0732795" rx="0" ry="0" width="2.4003849" height="2.146559" />
</g>
</g>
</g>
</svg>